<svg xmlns="http://www.w3.org/2000/svg"  viewBox="0 0 72 72" width="64px" height="64px"><path d="M46.603,14C57.173,14,58,14.827,58,25.397v21.277C58,57.178,57.178,58,46.674,58H25.326C14.822,58,14,57.178,14,46.674	V25.326C14,14.822,14.822,14,25.326,14H46.603z M46.248,42.818c0.633,0,1.674-0.104,0.882-1.424c-0.067-0.11-0.462-0.976-2.38-2.758	c-1.633-1.523-1.55-1.69,0.605-4.85c1.727-2.533,1.986-2.995,1.855-3.418c-0.12-0.389-0.268-0.541-1.164-0.541	c-0.777,0-2.717-0.05-3.344-0.05c-0.947,0-1.083,0.695-2.416,3.404c-1.078,2.191-1.634,2.845-2.104,2.845	c-0.537,0-0.82-0.559-0.82-2.643c0-2.961,0.141-4.201-2.462-4.201c-3.64,0-3.807,0.854-3.374,1.062	c0.537,0.258,1.271,0.57,1.271,2.092c0,2.23,0.013,3.549-0.63,3.549c-0.643,0-0.981-0.301-2.358-2.811	c-1.622-2.956-1.613-3.297-2.758-3.297c-0.924,0-2.177,0-2.992,0c-0.595,0-0.766,0.485-0.617,0.842	c0.189,0.453,2.879,6.54,5.715,9.413s5.732,2.786,6.157,2.786c0.134,0,0.617,0,0.791,0c0.888,0,1.206-0.507,1.282-0.918	c0.257-1.389,0.34-2.209,0.885-2.209c0.521,0,0.841,0.322,3.185,2.683c0.288,0.29,0.541,0.443,1.304,0.443	C43.523,42.818,45.615,42.818,46.248,42.818z"/></svg>